<?xml version="1.0" encoding="UTF-8" standalone="no"?>
<!-- Created with Inkscape (http://www.inkscape.org/) -->

<svg
   width="202.26245mm"
   height="42.747341mm"
   viewBox="0 0 202.26245 42.747341"
   version="1.1"
   id="svg5"
   sodipodi:docname="drawing.svg"
   inkscape:version="1.1 (c68e22c387, 2021-05-23)"
   xmlns:inkscape="http://www.inkscape.org/namespaces/inkscape"
   xmlns:sodipodi="http://sodipodi.sourceforge.net/DTD/sodipodi-0.dtd"
   xmlns="http://www.w3.org/2000/svg"
   xmlns:svg="http://www.w3.org/2000/svg">
  <sodipodi:namedview
     id="namedview7"
     pagecolor="#ffffff"
     bordercolor="#666666"
     borderopacity="1.0"
     inkscape:pageshadow="2"
     inkscape:pageopacity="0"
     inkscape:pagecheckerboard="0"
     inkscape:document-units="mm"
     showgrid="false"
     fit-margin-top="0"
     fit-margin-left="0"
     fit-margin-right="0"
     fit-margin-bottom="0"
     inkscape:zoom="1.771358"
     inkscape:cx="389.81391"
     inkscape:cy="152.98996"
     inkscape:window-width="2400"
     inkscape:window-height="1246"
     inkscape:window-x="2391"
     inkscape:window-y="-9"
     inkscape:window-maximized="1"
     inkscape:current-layer="g850" />
  <defs
     id="defs2" />
  <g
     inkscape:label="Layer 1"
     inkscape:groupmode="layer"
     id="layer1"
     transform="translate(-6.5309926,-123.42204)">
    <g
       fill="#0033a0"
       id="g850"
       transform="matrix(10.911772,0,0,10.911772,-155.87238,93.05741)">
      <path
         d="m 17.49081,2.7827401 c -1.433817,0 -2.607492,0.8649607 -2.607492,1.9279469 0,1.0625193 1.174142,1.9895966 2.607492,1.9895966 1.445961,0 2.620104,-0.9270773 2.620104,-1.9895966 0,-1.0629862 -1.174143,-1.9279469 -2.620104,-1.9279469 z m 0,0.135909 c 1.247935,0 2.261415,0.8033112 2.261415,1.7920379 0,0.9882597 -1.01348,1.8532205 -2.261415,1.8532205 -1.247935,0 -2.261415,-0.8649608 -2.261415,-1.8532205 0,-0.9887267 1.01348,-1.7920379 2.261415,-1.7920379 z m 4.621375,0.643116 -1.618765,2.4832594 h 0.556246 l 0.407728,-0.642649 h 0.926609 v 0.642649 h 0.519351 V 3.5617651 Z m 0.271818,0.4198704 v 0.9882597 h -0.642182 c 0.0495,-0.06165 0.642182,-0.9882597 0.642182,-0.9882597 z M 33.20909,5.6372974 A 0.20129486,0.20129486 0 0 0 32.998921,5.847466 c 0,0.1111559 0.08687,0.1975585 0.210169,0.1975585 0.123765,0 0.210169,-0.086403 0.210169,-0.1975585 A 0.20082782,0.20082782 0 0 0 33.20909,5.6372974 Z m 0,0.024753 c 0.09901,0 0.185415,0.062117 0.185415,0.1854156 0,0.1111558 -0.0864,0.1728052 -0.185415,0.1728052 -0.09855,0 -0.172806,-0.061649 -0.172806,-0.1728052 0,-0.123299 0.07426,-0.1854156 0.172806,-0.1854156 z"
         id="path824"
         style="stroke-width:0.467041;fill:#ffffff;fill-opacity:1" />
      <path
         d="m 33.13483,5.724167 v 0.2223118 h 0.03737 v -0.086869 h 0.02429 l 0.07472,0.086403 h 0.0369 l -0.06212,-0.099013 c 0.02475,0 0.0495,-0.024754 0.0495,-0.061649 0,-0.037363 -0.03689,-0.06165 -0.0864,-0.06165 z m 0.03737,0.036897 h 0.03736 c 0.02429,0 0.03643,0.012143 0.03643,0.024753 0,0.024754 -0.01214,0.036897 -0.0369,0.036897 h -0.03736 z"
         id="path826"
         style="stroke-width:0.467041;fill:#ffffff;fill-opacity:1" />
      <path
         d="m 24.151288,6.0450245 h 0.518883 V 3.5617651 h -0.518883 z m -0.914467,0 h 0.531493 V 3.5617651 h -0.531493 z"
         stroke-width="0.123765"
         id="path828"
         style="fill:#ffffff;fill-opacity:1" />
      <path
         d="m 31.800492,4.1175445 c -0.234922,0 -0.43248,0.07426 -0.580999,0.2101687 -0.185416,0.1728053 -0.271817,0.4324803 -0.271817,0.7533378 0,0.5931426 0.346077,0.9639735 0.926609,0.9639735 a 1.3684314,1.3684314 0 0 0 0.741662,-0.2101687 l 0.01214,-0.012143 -0.06165,-0.382974 -0.02475,0.012143 c -0.222312,0.1485192 -0.407727,0.2101685 -0.617896,0.2101685 -0.271818,0 -0.444623,-0.1728052 -0.469376,-0.4693766 H 32.62809 L 32.6407,5.0689078 c 0,-0.630506 -0.284428,-0.9513634 -0.828064,-0.9513634 z m 0,0.3456107 c 0.259208,0 0.333468,0.2227787 0.333468,0.4203372 h -0.679545 c 0.02475,-0.271818 0.148519,-0.4203372 0.345611,-0.4203372 z"
         id="path830"
         style="stroke-width:0.467041;fill:#ffffff;fill-opacity:1" />
      <path
         d="m 29.922052,3.5617651 v 0.5931427 h -0.259675 v 0.395117 h 0.259675 v 0.9387534 c 0,0.3708308 0.197558,0.5562463 0.630506,0.5562463 0.135442,0 0.222311,-0.024754 0.296104,-0.037364 h 0.02475 l -0.07379,-0.4072601 h -0.02475 c -0.03736,0.012143 -0.07472,0.012143 -0.135908,0.012143 -0.14852,0 -0.222779,-0.06165 -0.222779,-0.1975586 v -0.86496 h 0.370831 l 0.01261,-0.395584 H 30.416648 V 3.5617651 Z"
         stroke-width="0.123765"
         id="path832"
         style="fill:#ffffff;fill-opacity:1" />
      <path
         d="m 28.76052,4.1175445 c -0.308714,0 -0.555779,0.07426 -0.741194,0.135442 l -0.01261,0.01261 0.06165,0.3955841 0.02475,-0.01261 c 0.222778,-0.098546 0.420337,-0.1480521 0.605286,-0.1480521 0.198025,0 0.297038,0.086403 0.297038,0.2475319 v 0.049039 c -0.753805,0.07426 -1.112493,0.3091814 -1.112493,0.7416618 0,0.3087145 0.210169,0.5062729 0.544103,0.5062729 0.234456,0 0.420338,-0.073793 0.605287,-0.2344548 l 0.03736,0.1975585 h 0.432481 V 4.7354403 c 0,-0.4203373 -0.234922,-0.6178958 -0.741662,-0.6178958 z m 0.234922,0.9761166 v 0.4077271 c -0.123766,0.1111559 -0.259676,0.1728054 -0.407728,0.1728054 -0.123765,0 -0.198025,-0.073793 -0.198025,-0.1849484 0,-0.2101686 0.210169,-0.3460777 0.605753,-0.3955841 z"
         id="path834"
         style="stroke-width:0.467041;fill:#ffffff;fill-opacity:1" />
      <path
         d="m 26.795676,3.5617651 v 0.5931427 h -0.259674 v 0.395117 h 0.259674 v 0.9387534 c 0,0.3708308 0.210169,0.5562463 0.630506,0.5562463 0.135442,0 0.222313,-0.012143 0.296105,-0.037364 h 0.02475 l -0.06165,-0.4072601 h -0.02475 c -0.03736,0.012143 -0.08641,0.012143 -0.148052,0.012143 -0.148519,0 -0.222779,-0.06165 -0.222779,-0.1975586 v -0.86496 H 27.67278 V 4.1544408 H 27.289806 V 3.5617651 Z M 25.115261,4.30296 a 0.50300362,0.50300362 0 0 0 -0.148518,0.3703638 c 0.01261,0.3708309 0.198025,0.4819868 0.655259,0.5931426 0.296571,0.062117 0.358221,0.1116229 0.358221,0.2475319 0,0.1111559 -0.07426,0.1606623 -0.284429,0.1606623 -0.210169,0 -0.457233,-0.074727 -0.654792,-0.1980255 l -0.03736,-0.024754 -0.07379,0.4077272 0.02475,0.01261 c 0.160662,0.086403 0.432481,0.1728053 0.728584,0.1728053 0.284896,0 0.495065,-0.06165 0.618364,-0.1849484 0.09854,-0.099013 0.148052,-0.2349218 0.148052,-0.395584 0,-0.3955841 -0.222313,-0.4941298 -0.679545,-0.6057528 -0.284429,-0.073793 -0.333468,-0.1111559 -0.333468,-0.2223117 0.01215,-0.086403 0.09854,-0.1480521 0.234454,-0.1480521 0.172805,0 0.395584,0.06165 0.581,0.1606623 l 0.02475,0.012143 0.07426,-0.4077271 -0.02475,-0.01261 A 1.7672847,1.7672847 0 0 0 25.671041,4.1175445 c -0.234455,0 -0.43248,0.07426 -0.55578,0.1854155"
         stroke-width="0.123765"
         id="path836"
         style="fill:#ffffff;fill-opacity:1" />
      <path
         d="m 15.773499,3.5739082 -0.111622,0.1111559 c 0.01261,0 0.03736,0.024754 0.03736,0.024754 0.01214,0 0.172805,0.123299 0.197559,0.1480521 -0.01261,0.012143 -0.07426,0.1854154 -0.07426,0.1854154 -0.06165,0.1480522 -0.123766,0.2965714 -0.123766,0.4077273 v 0.024753 l 0.0495,0.2596751 v 0.012143 c 0.03736,0.1485192 0.06165,0.2965713 0.08641,0.4077271 0,0.037364 0,0.049507 0.02522,0.061649 0.07379,0.074727 0.197558,0.2349218 0.358221,0.5441032 0,0.012143 0.01214,0.012143 0.01214,0.024753 0.01261,0.037363 0.03737,0.06165 0.0495,0.07426 a 0.11208994,0.11208994 0 0 0 0.123767,0 0.44882681,0.44882681 0 0 0 0.172804,-0.1980255 c 0.01215,0.01261 0.0495,0.049507 0.0495,0.062117 -0.13591,0.2223118 0.09855,0.3082474 0.185415,0.2713511 -0.0495,0.1359091 0.135442,0.247532 0.296572,0.1732724 0.02475,0.086403 0.09901,0.1111558 0.172805,0.1237659 0.06212,0.012143 0.160662,0.024287 0.309182,0.012143 0.234455,-0.024755 0.444623,-0.086404 0.531025,-0.1359103 0.172805,-0.086403 0.272286,-0.1975585 0.321324,-0.2718181 l 0.02475,-0.024754 c 0.01261,0.037363 0.03736,0.061649 0.06165,0.086403 a 0.23865817,0.23865817 0 0 0 0.148519,0.07426 c 0.03736,-0.012143 0.06164,-0.024753 0.07426,-0.06165 0.07426,-0.1854155 0.247064,-0.4077272 0.382974,-0.5557793 l 0.01214,-0.02522 c 0.03736,-0.1111557 0.135908,-0.3708308 0.198025,-0.5067399 l 0.03736,-0.1111558 v -0.024754 c 0.01214,-0.037363 0.01214,-0.086403 0.01214,-0.1232988 0,-0.1854155 -0.02475,-0.3586878 -0.08641,-0.50674 a 0.66179771,0.66179771 0 0 0 -0.07473,-0.1606622 l -0.02429,-0.049507 c 0.03739,-0.061649 0.148071,-0.1359089 0.234939,-0.1854154 l 0.01215,-0.012142 -0.111155,-0.1116229 -0.07426,0.049507 c -0.0864,0.049507 -0.160663,0.074727 -0.222312,0.062117 0,-0.01261 -0.06164,-0.049507 -0.06164,-0.049507 h -0.08734 l 0.02475,0.024753 c 0.0495,0.06165 0.07473,0.098546 0.111624,0.1606623 l 0.01214,0.037364 0.02475,0.04904 0.02475,0.07426 0.01215,0.012143 0.01261,0.037364 0.0495,0.1728054 c 0.04904,0.1854154 0.06165,0.3334676 0.07379,0.4572336 l -0.01215,0.012143 -0.06165,0.1728054 c -0.06208,0.1732699 -0.136339,0.3960486 -0.161092,0.4824513 v 0.012143 c -0.172806,0.1728053 -0.296104,0.3708308 -0.345611,0.4945968 -0.01261,0.012143 -0.01261,0.012143 -0.01261,0.024754 -0.01215,0 -0.03689,-0.024754 -0.04904,-0.037364 -0.03737,-0.037363 -0.06212,-0.1111558 -0.06212,-0.1975586 0,-0.099013 0.0495,-0.1854155 0.123767,-0.2349218 0.01214,-0.012143 0.01214,-0.037364 0.01214,-0.037364 -0.02475,-0.1232986 0.01261,-0.2961039 0.08641,-0.3456103 l 0.01261,-0.01261 -0.01261,-0.012143 C 18.54072,4.8465962 18.442174,4.5621679 18.429564,4.3393893 v -0.024287 l -0.02475,0.01261 c -0.01214,0 -0.02475,0.024753 -0.02475,0.024753 0,0.037363 -0.01215,0.086403 -0.01215,0.1232991 0,0.1116228 0.02429,0.2101686 0.03689,0.2475319 0.02475,0.1111558 0.08641,0.2223117 0.185416,0.3208575 v 0.01261 c -0.03736,0.049507 -0.06165,0.1606622 -0.06165,0.2470648 0,0.024754 0,0.049507 0.01215,0.07426 -0.09855,0.073793 -0.1233,0.1849483 -0.135442,0.259208 v 0.074727 l -0.04998,0.06165 v 0.012143 c -0.09854,0.1232977 -0.160193,0.2101674 -0.320856,0.28396 -0.172805,0.086403 -0.494597,0.1485191 -0.716909,0.123766 -0.07426,-0.01261 -0.07426,-0.07426 -0.07426,-0.07426 0,-0.012143 0.01261,-0.024754 0.01261,-0.036897 l 0.02429,-0.01261 c 0.198026,0.01261 0.395584,-0.012143 0.481986,-0.049039 l 0.02521,-0.037364 0.01214,-0.012143 h -0.02475 c -0.172796,0.037364 -0.518875,-0.012609 -0.692147,-0.086869 -0.210169,-0.086403 -0.271818,-0.1606623 -0.43248,-0.370831 l -0.0495,-0.061649 a 0.37970468,0.37970468 0 0 0 -0.03689,-0.1601937 c -0.03736,-0.049506 -0.07426,-0.074726 -0.08641,-0.086869 a 0.44368936,0.44368936 0 0 0 0.02475,-0.1354426 0.41286462,0.41286462 0 0 0 -0.03736,-0.1858825 c 0.123766,-0.086403 0.185415,-0.1854154 0.185415,-0.2965713 0,-0.049507 -0.03689,-0.1232988 -0.03689,-0.1232988 l -0.0495,-0.024754 0.01214,0.037363 c 0.01261,0.1728053 -0.160662,0.2961042 -0.28396,0.3703638 l -0.02475,0.037364 h 0.01214 c 0.09901,0.061183 0.09901,0.2465979 0.07426,0.3582208 l 0.01261,0.012143 0.0495,0.037363 c 0.08641,0.1232989 0.07379,0.3087144 -0.02475,0.4077271 -0.02475,0.024754 -0.02475,0.024754 -0.03736,0.024754 -0.01214,0 -0.02475,-0.037363 -0.02475,-0.049507 l -0.0369,-0.049507 A 2.1222363,2.1222363 0 0 0 15.995344,5.1431675 l -0.01261,-0.01261 a 5.1047628,5.1047628 0 0 0 -0.09855,-0.5805326 l -0.02475,-0.086403 v -0.024754 c 0.01215,-0.1854154 0.06165,-0.3213245 0.135909,-0.4819868 l 0.03736,-0.099013 0.0369,-0.086403 v -0.012143 a 1.9008586,1.9008586 0 0 1 0.160662,-0.1485192 l 0.03689,-0.024753 -0.0495,-0.012143 c 0,0 -0.06164,0.012143 -0.135442,0.049507 h -0.01261 c -0.06212,0.024753 -0.123767,0.04904 -0.172805,0.024287 0,0 -0.111624,-0.06165 -0.123767,-0.073793 z M 16.6875,5.7858165 c 0.02475,0.024754 0.111622,0.099013 0.148518,0.1232989 -0.135908,0.024753 -0.185415,-0.06165 -0.148518,-0.1232989 z m 0.222779,0.1728054 c 0.06164,0.037363 0.160662,0.06165 0.247063,0.086403 -0.185415,0.086869 -0.29657,0.01261 -0.247531,-0.086403 z"
         id="path838"
         style="stroke-width:0.467041;fill:#ffffff;fill-opacity:1" />
      <g
         stroke-width="0.265"
         id="g848"
         transform="matrix(0.46704143,0,0,0.46704143,14.821669,2.7210907)"
         style="fill:#ffffff;fill-opacity:1">
        <path
           d="m 3.81,0.767 0.08,0.08 0.211,0.185 0.132,0.132 c 0.106,0.08 0.133,0.132 0.133,0.159 0,0 -0.027,0.026 -0.053,0.026 L 4.286,1.376 4.26,1.456 H 4.313 C 4.63,1.429 4.895,1.641 5.08,1.799 5.424,2.09 5.662,2.567 5.715,3.016 l 0.238,1.27 0.106,0.186 0.026,0.052 0.027,0.08 c 0.053,0.08 0.106,0.132 0.106,0.159 L 6.35,4.842 6.535,5.027 6.588,5.08 6.668,5.16 c 0,0.026 0.264,0.052 0.264,0.052 0.45,0.053 0.423,0.291 0.423,0.291 0,0 0.265,-0.37 -0.37,-0.529 0,0 -0.185,-0.026 -0.212,-0.026 L 6.72,4.842 C 6.694,4.842 6.694,4.816 6.694,4.816 L 6.482,4.63 6.402,4.577 C 6.402,4.551 6.324,4.366 6.324,4.366 L 6.218,4.1 A 2.538,2.538 0 0 1 6.138,3.703 L 6.112,3.6 6.032,3.07 6.059,2.965 C 6.085,2.753 6.165,2.541 6.297,2.303 6.429,2.038 6.72,1.853 6.72,1.853 6.932,1.721 7.25,1.642 7.408,1.615 c 0.08,0 0.08,-0.053 0.106,-0.08 V 1.509 H 7.488 A 1.187,1.187 0 0 0 7.276,1.456 V 1.43 c 0,0 0.026,-0.027 0.053,-0.08 l 0.132,-0.105 0.08,-0.08 c 0,0 0.343,-0.317 0.37,-0.37 L 7.593,0.715 7.249,1.059 C 7.038,1.271 6.773,1.536 6.667,1.589 6.377,1.694 6.085,1.985 5.953,2.224 L 5.873,2.435 C 5.794,2.197 5.688,1.985 5.53,1.827 A 1.41,1.41 0 0 0 4.921,1.403 C 4.79,1.27 4.34,0.873 4.101,0.688 Z"
           id="path840"
           style="fill:#ffffff;fill-opacity:1" />
        <path
           d="M 5.715,4.498 C 5.742,4.392 5.689,4.26 5.689,4.26 L 5.662,4.34 C 5.636,4.419 5.556,4.498 5.424,4.55 L 5.397,4.577 5.847,5.212 5.874,5.239 5.98,5.371 6.165,5.477 6.218,5.503 6.429,5.636 6.614,5.742 h 0.027 l 0.291,0.026 c 0.159,0 0.265,0.08 0.318,0.106 0.158,0.132 0.079,0.317 0.079,0.317 0,0 0.238,-0.211 0.08,-0.45 C 7.355,5.662 7.276,5.583 7.038,5.556 L 6.747,5.504 6.588,5.398 6.376,5.292 6.324,5.265 6.164,5.186 Z"
           id="path842"
           style="fill:#ffffff;fill-opacity:1" />
        <path
           d="m 5.45,5.847 0.053,0.027 0.186,0.08 c 0.132,0.052 0.29,0.131 0.37,0.158 l 0.212,0.132 c 0.026,0 0.238,-0.026 0.37,0 0.185,0 0.318,0.08 0.397,0.159 A 0.282,0.282 0 0 1 7.011,6.694 C 7.038,6.668 7.223,6.562 7.223,6.35 7.197,6.165 7.038,6.006 6.403,6.006 L 6.244,5.9 6.191,5.874 5.927,5.741 5.689,5.662 5.636,5.582 C 5.556,5.45 5.45,5.318 5.371,5.212 L 5.345,5.186 c 0,0 -0.16,-0.212 -0.16,-0.238 0.027,-0.106 0,-0.238 0,-0.238 0,0 -0.026,0.052 -0.079,0.105 C 5.08,4.868 4.948,4.948 4.868,4.975 L 4.842,5 5.397,5.74 Z"
           id="path844"
           style="fill:#ffffff;fill-opacity:1" />
        <path
           d="M 4.736,6.138 4.842,6.244 5.054,6.35 5.239,6.456 h 0.026 l 0.133,0.08 0.211,0.105 A 0.082,0.082 0 0 0 5.662,6.668 L 5.953,6.641 c 0.185,0 0.37,0 0.503,0.053 0.159,0.08 0.106,0.212 0.106,0.212 0,0 0.158,-0.106 0.132,-0.239 C 6.667,6.562 6.535,6.429 6.112,6.403 H 5.742 L 5.556,6.297 5.476,6.244 C 5.45,6.244 5.212,6.112 5.212,6.112 L 5.027,6.059 C 5.027,6.032 4.895,5.847 4.895,5.847 L 4.842,5.767 4.683,5.557 4.603,5.477 c 0,-0.027 -0.079,-0.132 -0.079,-0.132 0,0 0.08,-0.133 0.08,-0.265 L 4.524,5.16 C 4.471,5.213 4.286,5.292 4.154,5.318 H 4.101 l 0.423,0.556 z"
           id="path846"
           style="fill:#ffffff;fill-opacity:1" />
      </g>
    </g>
  </g>
</svg>
