<?xml version="1.0" encoding="UTF-8"?>
<svg id="Layer_1" data-name="Layer 1" xmlns="http://www.w3.org/2000/svg" viewBox="0 0 800 184.42">
  <defs>
    <style>
      .cls-1 {
        fill: #fff;
      }
    </style>
  </defs>
  <g id="EquipmentShare_Stack_PMS_Light">
    <g>
      <path class="cls-1" d="M536.4,121.45c0,2.08-.37,3.97-1.09,5.68-.73,1.71-1.72,3.17-2.97,4.38-1.25,1.21-2.7,2.15-4.34,2.82-1.65.67-3.37,1-5.18,1-2.01,0-3.84-.35-5.52-1.06-1.67-.71-3.11-1.68-4.31-2.91-1.2-1.24-2.14-2.7-2.82-4.4-.68-1.69-1.02-3.53-1.02-5.51,0-2.08.37-3.97,1.1-5.68.73-1.71,1.72-3.17,2.97-4.38,1.25-1.21,2.7-2.15,4.36-2.82,1.66-.67,3.4-1,5.24-1s3.53.33,5.18,1c1.65.67,3.09,1.61,4.34,2.82,1.25,1.21,2.24,2.67,2.97,4.38.73,1.71,1.09,3.6,1.09,5.68ZM533.43,121.45c0-1.68-.27-3.23-.82-4.64-.55-1.41-1.3-2.62-2.26-3.64-.97-1.01-2.09-1.8-3.38-2.36-1.29-.56-2.67-.83-4.16-.83s-2.91.28-4.22.83c-1.3.56-2.43,1.34-3.4,2.36-.97,1.01-1.72,2.23-2.27,3.64-.55,1.41-.82,2.96-.82,4.64,0,1.58.25,3.07.74,4.46.5,1.39,1.21,2.6,2.14,3.64.93,1.04,2.05,1.86,3.36,2.47,1.31.61,2.8.91,4.46.91,1.48,0,2.87-.28,4.16-.84,1.29-.56,2.41-1.34,3.38-2.36.96-1.02,1.72-2.22,2.26-3.62.55-1.4.82-2.95.82-4.66ZM520.06,129.4h-2.53v-15.37h5.83c1.86,0,3.26.35,4.2,1.04.94.69,1.41,1.82,1.41,3.38,0,1.39-.38,2.4-1.15,3.04-.77.64-1.72,1.03-2.86,1.15l4.31,6.76h-2.86l-3.97-6.57h-2.38v6.57ZM522.89,120.67c.47,0,.92-.02,1.35-.06.43-.04.81-.14,1.13-.32.32-.17.58-.41.78-.72.2-.31.3-.75.3-1.32,0-.47-.11-.84-.32-1.11s-.48-.48-.8-.63c-.32-.15-.68-.24-1.07-.28-.4-.04-.78-.06-1.15-.06h-3.04v4.49h2.82Z"/>
      <g>
        <g>
          <path class="cls-1" d="M177.64,65.33h7.07V14.48h-7.07V0h67.42v23.63h-18.65v-9.15h-19.81v16.45h30.23v16.45h-30.23v17.95h20.04v-9.61h18.53v24.21h-67.54v-14.6Z"/>
          <path class="cls-1" d="M283.17,87.11h9.04v-13.21l-5.91,6.02h-23.05l-11.12-11.24V31.62l11.12-11.12h25.25l7.76,7.76,1.04-7.76h21.55v13.44h-5.56v53.17h5.56v13.21h-35.68v-13.21ZM286.88,66.26l5.33-5.33v-22.36l-4.87-4.87h-11.35l-2.9,2.9v26.76l2.9,2.9h10.89Z"/>
          <path class="cls-1" d="M328.57,68.69v-34.75h-4.98v-13.44h25.95v40.89l2.9,2.9h9.15l5.1-5.1v-25.25h-7.18v-13.44h28.15v46.22h5.44v13.21h-21.43l-1.04-8.11-8.11,8.11h-22.82l-11.12-11.24Z"/>
          <path class="cls-1" d="M397.83,66.72h6.49v-32.78h-6.49v-13.44h27.57v46.22h5.91v13.21h-33.48v-13.21ZM403.62,0h21.78v14.94h-21.78V0Z"/>
          <path class="cls-1" d="M432.92,87.11h5.56v-53.17h-5.56v-13.44h21.55l.93,7.76,7.88-7.76h25.14l11.24,11.12v37.07l-11.24,11.24h-23.75l-5.21-5.21v12.4h9.04v13.21h-35.56v-13.21ZM475.66,66.26l2.9-2.9v-26.76l-2.9-2.9h-11.35l-4.87,4.87v23.17l4.52,4.52h11.7Z"/>
          <path class="cls-1" d="M505.48,66.72h5.56v-32.78h-5.56v-13.44h21.55l1.04,8.11,8.11-8.11h22.13l7.3,7.3,7.41-7.3h22.71l11.12,11.12v35.1h4.98v13.21h-31.62v-13.21h5.68v-27.69l-2.9-2.9h-8.46l-5.1,5.1v25.48h5.68v13.21h-32.32v-13.21h5.68v-27.69l-2.9-2.9h-8.46l-5.1,5.1v25.48h5.68v13.21h-32.2v-13.21Z"/>
          <path class="cls-1" d="M617.83,68.69V31.62l11.12-11.12h36.84l11.12,11.12v23.17h-38.81v9.96l2.43,2.43h14.6l.93-1.04v-4.4h20.85v8.69l-9.38,9.5h-38.58l-11.12-11.24ZM656.75,43.79v-8.57l-2.2-2.09h-14.25l-2.2,2.09v8.57h18.65Z"/>
          <path class="cls-1" d="M682.68,66.72h5.56v-32.78h-5.56v-13.44h21.55l1.04,8.11,8.11-8.11h22.82l11.12,11.12v35.1h4.98v13.21h-31.62v-13.21h5.68v-27.69l-2.9-2.9h-9.15l-5.1,5.1v25.48h5.68v13.21h-32.2v-13.21Z"/>
          <path class="cls-1" d="M762.58,70.2v-36.26h-8.22v-13.44h8.22V5.91h20.97v14.6h16.45v13.44h-16.45v30.47l2.32,2.32h14.13v13.21h-27.8l-9.61-9.73Z"/>
          <path class="cls-1" d="M176.71,173.18v-13.67h21.89v6.6l2.55,2.43h17.61l2.32-2.32v-11.58l-1.74-1.74h-32.44l-9.85-9.96v-26.88l11.58-11.58h42.98l11.24,11.24v13.67h-21.89v-6.6l-2.55-2.55h-17.03l-2.32,2.43v11.12l1.74,1.85h32.44l9.85,9.85v27.34l-11.58,11.58h-43.56l-11.24-11.24Z"/>
          <path class="cls-1" d="M249.31,171.21h5.56v-53.29h-5.56v-13.44h26.53v27.11l6.72-6.6h20.27l11.12,11.12v35.1h4.98v13.21h-31.62v-13.21h5.68v-27.69l-2.9-2.9h-9.15l-5.1,5.1v25.48h5.68v13.21h-32.2v-13.21Z"/>
          <path class="cls-1" d="M324.29,174.46v-15.99l9.96-9.96h28.84v-9.04l-2.09-1.97h-12.51l-.93.93v4.06h-21.55v-7.76l9.61-9.73h37.07l11.24,11.12v35.1h4.98v13.21h-20.97l-1.04-7.76-7.76,7.76h-24.91l-9.96-9.96ZM358.93,171.33l4.17-4.06v-8.34h-15.99l-1.62,1.62v9.15l1.62,1.62h11.82Z"/>
          <path class="cls-1" d="M393.73,171.21h5.56v-32.78h-5.56v-13.44h21.55l1.04,8.11,8.11-8.11h14.83v17.38h-14.25l-4.75,4.75v24.09h9.15v13.21h-35.68v-13.21Z"/>
          <path class="cls-1" d="M445.01,173.18v-37.07l11.12-11.12h36.84l11.12,11.12v23.17h-38.81v9.96l2.43,2.43h14.6l.93-1.04v-4.4h20.85v8.69l-9.38,9.5h-38.58l-11.12-11.24ZM483.93,148.28v-8.57l-2.2-2.09h-14.25l-2.2,2.09v8.57h18.65Z"/>
        </g>
        <g>
          <path class="cls-1" d="M24.24,133.77L0,91.8h12.93c.01-1.75.09-3.49.24-5.21.16-1.89.4-3.74.73-5.58l-9.17-8.27c.56-2.12,1.22-4.21,1.97-6.26.75-2.06,1.59-4.09,2.51-6.06.93-1.99,1.94-3.93,3.04-5.82,1.1-1.9,2.28-3.74,3.53-5.53,1.26-1.79,2.59-3.52,4-5.2l12.03,2.76c1.32-1.33,2.7-2.59,4.14-3.8,1.43-1.2,2.92-2.34,4.45-3.42l-.63-12.34c1.89-1.09,3.83-2.1,5.81-3.03,1.97-.93,4-1.77,6.06-2.51,2.05-.74,4.13-1.4,6.26-1.97,2.1-.56,4.24-1.04,6.41-1.41,2.14-.38,4.31-.67,6.5-.85l6.56,10.45c1.89,0,3.77.08,5.61.24,1.89.16,3.74.41,5.58.73l8.27-9.16c2.12.57,4.21,1.22,6.26,1.97,2.06.75,4.08,1.59,6.06,2.51,1.99.93,3.93,1.94,5.82,3.03,1.9,1.1,3.74,2.28,5.53,3.53,1.44,1.01,2.85,2.08,4.21,3.18l-16.47,28.53c-.16-.17-.32-.33-.49-.5-.88-.88-1.8-1.73-2.76-2.53-.96-.81-1.95-1.57-2.98-2.29-1.02-.72-2.07-1.39-3.15-2.02-1.08-.62-2.19-1.2-3.33-1.73-1.13-.53-2.28-1.01-3.46-1.44-1.17-.43-2.36-.81-3.58-1.13-1.2-.32-2.42-.59-3.66-.81-1.22-.22-2.46-.38-3.72-.48-1.24-.11-2.48-.17-3.74-.17s-2.51.05-3.75.17c-1.26.1-2.5.27-3.72.48-1.24.22-2.46.48-3.66.81h0c-1.22.33-2.41.7-3.58,1.13-1.18.43-2.33.91-3.46,1.44-1.14.53-2.25,1.11-3.33,1.73-1.08.63-2.14,1.3-3.16,2.02-1.02.72-2.02,1.48-2.97,2.28-.96.8-1.89,1.65-2.76,2.53-.88.88-1.73,1.8-2.53,2.76-.81.96-1.57,1.95-2.28,2.97-.72,1.02-1.4,2.07-2.02,3.16-.63,1.08-1.21,2.19-1.74,3.33-.53,1.13-1.01,2.28-1.44,3.46-.42,1.17-.8,2.36-1.12,3.58-.32,1.2-.59,2.42-.81,3.66-.22,1.22-.38,2.46-.48,3.72-.1,1.1-.15,2.22-.16,3.34h14.05l-24.23,41.98Z"/>
          <path class="cls-1" d="M107.06,91.79h13.27c0,1.21-.06,2.76-.17,3.88-.1,1.26-.26,2.5-.48,3.72-.22,1.24-.48,2.46-.81,3.66-.32,1.22-.7,2.41-1.12,3.58-.43,1.18-.91,2.33-1.44,3.46-.53,1.14-1.11,2.25-1.74,3.33-.63,1.08-1.3,2.13-2.02,3.15-.71,1.02-1.47,2.02-2.28,2.97-.8.96-1.64,1.88-2.53,2.76-.88.88-1.8,1.73-2.76,2.53-.96.81-1.95,1.57-2.97,2.28-1.02.72-2.08,1.4-3.16,2.02-1.08.62-2.19,1.21-3.32,1.74-1.13.53-2.28,1.01-3.46,1.44-1.17.42-2.36.8-3.58,1.12h0c-1.2.33-2.42.59-3.66.81-1.22.22-2.46.38-3.72.48-1.24.11-2.48.17-3.75.17s-2.51-.06-3.74-.17c-1.26-.1-2.5-.26-3.72-.48-1.24-.22-2.46-.48-3.66-.81-1.22-.32-2.41-.7-3.58-1.13-1.18-.43-2.33-.91-3.46-1.44-1.14-.53-2.25-1.11-3.33-1.74-1.08-.62-2.14-1.3-3.15-2.02-1.03-.72-2.02-1.48-2.98-2.29-.96-.8-1.88-1.65-2.76-2.53-.06-.06-.13-.13-.19-.2l-16.45,28.49c1.26,1.01,2.56,1.99,3.89,2.92,1.79,1.26,3.64,2.43,5.53,3.53,1.89,1.09,3.83,2.11,5.81,3.04,1.97.93,4,1.76,6.06,2.51,2.05.74,4.13,1.4,6.26,1.97l8.27-9.16c1.83.32,3.69.57,5.58.73,1.85.16,3.72.24,5.61.24l6.56,10.45c2.2-.19,4.37-.47,6.5-.85,2.17-.37,4.31-.85,6.41-1.41,2.12-.57,4.21-1.22,6.25-1.97,2.06-.75,4.09-1.59,6.06-2.51,1.99-.93,3.92-1.94,5.81-3.03l-.63-12.33c1.53-1.08,3.02-2.22,4.45-3.42,1.44-1.21,2.82-2.48,4.14-3.81l12.03,2.77c1.41-1.67,2.74-3.41,4-5.2,1.26-1.78,2.43-3.63,3.53-5.53,1.09-1.89,2.1-3.83,3.04-5.82.92-1.97,1.76-4,2.51-6.06.74-2.05,1.4-4.13,1.97-6.26l-9.17-8.27c.33-1.83.57-3.69.73-5.58.16-1.79.24-3.91.24-5.75h13.72l-24.23-41.98-24.23,41.98Z"/>
        </g>
      </g>
    </g>
  </g>
</svg>