<svg xmlns="http://www.w3.org/2000/svg" id="Layer_1" data-name="Layer 1" viewBox="0 0 300 81.09"><defs fill="#000000"><style> .cls-1 { fill: #ffffff; stroke-width: 0px; } </style></defs><path class="cls-1" d="m300,46.19v2.96c-.04.13-.11.26-.12.4-.4,4.02-2.44,6.99-6.06,8.94-1.94,1.04-4.04,1.57-6.23,1.78-1.05.1-2.11.13-3.16.13-7.86.01-15.73,0-23.6,0h-.8c-.14-.47-.19-6.91-.06-8,.25,0,.52-.02.78-.02,7.93,0,15.86,0,23.79-.01.92,0,1.85-.13,2.77-.24.41-.06.81-.22,1.2-.38,1.07-.46,1.74-1.27,2.01-2.38.44-1.77,0-3.22-1.5-4.34-1.01-.74-2.13-1.27-3.29-1.71-2.4-.91-4.91-1.54-7.39-2.22-3.11-.85-6.22-1.7-9.2-2.96-2.03-.86-3.94-1.89-5.61-3.34-2.8-2.43-3.9-5.5-3.59-9.1.13-1.45.44-2.85,1.07-4.18,1.17-2.45,3.1-4.14,5.58-5.26,2.05-.94,4.23-1.43,6.48-1.62,1.32-.11,2.65-.15,3.98-.15,6.54-.02,13.07-.01,19.61-.01h.81c.14.45.19,7.2.05,8.04h-.73c-7.41,0-14.8,0-22.21.01-.79,0-1.6.09-2.38.24-1.87.38-2.73,1.4-2.91,3.25-.15,1.35.42,2.36,1.47,3.16.82.61,1.72,1.05,2.67,1.42,2.24.89,4.57,1.47,6.89,2.08,3.07.8,6.13,1.6,9.08,2.73,2.09.8,4.1,1.76,5.91,3.09,1.96,1.46,3.47,3.25,4.2,5.59.18.54.25,1.12.36,1.69.03.13.08.26.13.4" fill="#000000"/><path class="cls-1" d="m253.53,59.53v.85h-8.93c0-.26-.02-.5-.02-.74v-23.33c0-1.15.06-2.31-.03-3.46-.38-4.88-2.72-8.52-7.41-10.43-6.73-2.74-14.32,1.17-15.95,8.11-.27,1.13-.38,2.27-.38,3.43v26.39h-8.88c-.02-.24-.04-.45-.04-.68,0-8.89-.06-17.77.02-26.67.04-5.09,1.72-9.63,5.34-13.4,2.4-2.5,5.31-4.2,8.68-5.15,5.12-1.46,10.25-1.37,15.23.57,6.46,2.53,10.38,7.23,11.89,13.85.36,1.56.5,3.14.5,4.73,0,8.64,0,17.28,0,25.93" fill="#000000"/><path class="cls-1" d="m206.83,34.59c.08.95.14,1.89.17,2.44-.04,6.46-2.01,11.82-6.2,16.33-3.57,3.83-7.99,6.24-13.14,7.37-5.85,1.28-11.57.78-17.03-1.7-7.07-3.21-11.79-8.47-13.53-15.93-1.9-8.17-.13-15.57,5.75-21.82,3.56-3.79,8.03-6.13,13.18-7.18,6.99-1.42,13.61-.41,19.67,3.29,6.1,3.72,9.76,9.12,10.99,16.05.07.39.12.77.14,1.16m-10.5,9.51c1.82-4.39,1.82-8.87.03-13.27-1.71-4.22-4.86-7.03-9.26-8.47-2.97-.96-6.02-1.1-9.08-.44-5.39,1.15-9.18,4.24-11.14,9.3-1.55,4-1.54,8.08-.12,12.11,1.19,3.4,3.39,6.06,6.59,7.88,2.56,1.46,5.35,2.09,8.65,2.09,1.03.02,2.39-.11,3.74-.44,5.01-1.21,8.62-4.08,10.58-8.76" fill="#000000"/><path class="cls-1" d="m148.03.26c2.4.72,3.83,2.82,3.6,5.24-.22,2.2-2.17,4.04-4.55,4.29-2.29.23-4.39-.86-5.33-2.78-1.31-2.68.15-5.87,3.11-6.74C145.13.18,145.41.09,145.68,0h1.66c.23.09.46.18.69.26" fill="#000000"/><path class="cls-1" d="m150.83,14.51c.15.51.17,45.26.02,45.87h-8.73s-.03-.03-.05-.04c-.01-.01-.03-.02-.04-.04-.01-.06-.03-.13-.03-.18V14.8c0-.08.03-.16.05-.29h8.78Z" fill="#000000"/><path class="cls-1" d="m136.56,52.38v7.99c-.25.01-.46.02-.67.02-3.97,0-7.95.03-11.92,0-2.64-.02-5.16-.61-7.44-1.96-3.05-1.8-4.82-4.5-5.72-7.8-.42-1.54-.62-3.12-.62-4.71-.01-14.46,0-28.93,0-43.39v-.78c.45-.15,7.97-.21,8.94-.06v12.77h17.34c.17.53.19,7.4.02,8.05h-17.31c-.02.24-.05.42-.05.6,0,7.84-.01,15.68,0,23.52,0,.77.1,1.57.29,2.32.36,1.45,1.31,2.42,2.76,2.91,1.23.43,2.52.51,3.81.51,3.26,0,6.51,0,9.77,0h.79Z" fill="#000000"/><path class="cls-1" d="m104.72,36.4c.25,3.13-.04,6.17-1.04,9.16-2.59,7.78-9.51,13.76-17.74,15.37-2.77.54-5.54.54-8.34.25-3.26-.35-6.38-1.21-9.31-2.65-.25-.12-.48-.26-.74-.39v-8.68c.26-.07.43.13.61.24,2.57,1.52,5.31,2.64,8.25,3.24,3.86.79,7.62.4,11.19-1.28,3.61-1.71,6.03-4.49,7.29-8.18,1.41-4.15,1.41-8.33-.26-12.41-2.04-5.03-5.91-8.03-11.3-9.15-2.77-.58-5.55-.53-8.28.28-3.93,1.17-6.76,3.64-8.66,7.16-1.24,2.29-1.89,4.76-2.21,7.32-.18,1.56-.22,3.12-.22,4.69.01,12.96.01,25.92.01,38.87,0,.29-.01.58-.02.87h-8.88c-.03-.25-.06-.49-.06-.74,0-13.96-.02-27.92.01-41.9,0-4.89,1.08-9.54,3.66-13.78,3.52-5.79,8.74-9.31,15.47-10.65,4.92-.97,9.81-.71,14.56.92,6.58,2.25,11.16,6.61,13.9,12.82,1.22,2.76,1.86,5.64,2.09,8.62" fill="#000000"/><path class="cls-1" d="m47.96,26.26c2.06,3.58,3.01,7.46,2.93,11.57-.14,6.13-2.41,11.4-6.73,15.83-3.96,4.05-8.8,6.51-14.46,7.37-7.35,1.11-14.09-.46-20.02-4.88-5.01-3.73-8.09-8.68-9.24-14.75-.08-.43-.1-.86-.18-1.28-.06-.34-.16-.67-.25-1v-3.34c.08-.3.19-.59.23-.89,1.1-8.3,5.56-14.35,12.98-18.41,2.31-1.26,4.8-2.06,7.38-2.54.12-.02.24-.02.41-.03v7.79c-.21.07-.43.13-.64.21-5.83,1.87-9.88,5.56-11.52,11.37-1.63,5.79-.12,10.94,4.09,15.29,2.81,2.89,6.33,4.51,10.36,5.01,8.05.98,15.95-3.47,18.54-10.98,2.09-6.07.72-11.52-3.7-16.21-2.11-2.24-4.74-3.7-7.73-4.55-.13-.03-.24-.07-.4-.12v-7.82c.29.04.58.07.85.13,7.53,1.66,13.3,5.66,17.1,12.23" fill="#000000"/><rect class="cls-1" x="23.85" y="13.54" width="3.28" height="22.92" fill="#000000"/></svg>