<svg width="118" height="43" viewBox="0 0 118 43" fill="none" xmlns="http://www.w3.org/2000/svg">
<path d="M18.679 33.6853C23.6724 33.6853 27.736 29.6021 27.736 24.5847C27.736 19.5673 23.6724 15.4841 18.679 15.4841C13.6857 15.4841 9.62207 19.5673 9.62207 24.5847C9.62207 29.6021 13.6857 33.6853 18.679 33.6853ZM18.679 20.38C20.9862 20.38 22.8636 22.2665 22.8636 24.5847C22.8636 26.903 20.9862 28.7894 18.679 28.7894C16.3719 28.7894 14.4929 26.903 14.4929 24.5847C14.4929 22.2665 16.3703 20.38 18.679 20.38Z" fill="white"/>
<path d="M37.3586 42.2752V14.9668L18.6156 0L0 14.9668V42.2752H37.3586ZM18.7414 5.94174L32.7231 17.2801V37.619H4.63551V17.2834L18.7414 5.94174Z" fill="white"/>
<path d="M48.118 14.7617C51.9268 14.7617 54.6277 17.4839 54.6277 21.1779C54.6277 24.872 51.9268 27.5942 48.118 27.5942C44.3093 27.5942 41.6084 24.872 41.6084 21.1779C41.6084 17.4839 44.3093 14.7617 48.118 14.7617ZM48.118 24.3779C49.9121 24.3779 51.1523 23.0693 51.1523 21.1779C51.1523 19.2866 49.9121 17.978 48.118 17.978C46.324 17.978 45.0838 19.2866 45.0838 21.1779C45.0838 23.0693 46.324 24.3779 48.118 24.3779Z" fill="white"/>
<path d="M55.7695 27.3658V14.9915H61.258C64.3902 14.9915 66.034 16.6185 66.034 19.1108C66.034 21.0202 64.9343 22.3813 62.8592 22.8229L66.2023 27.3658H62.2612L59.2972 22.974H59.1126V27.3658H55.7695ZM59.1126 20.2075H61.2236C62.0504 20.2075 62.6583 19.8627 62.6583 19.1108C62.6583 18.3588 62.0521 18.0058 61.2236 18.0058H59.1126V20.2059V20.2075Z" fill="white"/>
<path d="M72.2273 14.9915L74.6995 22.4338L77.1618 14.9915H81.7973V27.3658H78.4543V19.6148L76.4756 26.2166H72.9136L70.9349 19.6148V27.3658H67.5918V14.9915H72.2273Z" fill="white"/>
<path d="M83.5029 14.9915H93.1252V17.9796H86.8444V19.6148H92.6857V22.6029H86.8444V24.3794H93.1252V27.3675H83.5029V14.9931V14.9915Z" fill="white"/>
<path d="M93.96 27.3658L98.6216 14.9915H102.563L107.224 27.3658H103.68L102.862 25.0066H98.2703L97.4517 27.3658H93.96ZM101.832 22.0102L100.566 18.3506L99.2997 22.0102H101.832Z" fill="white"/>
<path d="M107.092 22.3189V14.9915H110.443V22.222C110.443 23.6455 111.252 24.3794 112.546 24.3794C113.84 24.3794 114.649 23.6455 114.649 22.222V14.9915H118V22.3189C118 25.6863 116.082 27.5957 112.546 27.5957C109.01 27.5957 107.092 25.6863 107.092 22.3189Z" fill="white"/>
<path d="M51.5386 39.1901V42.2833H42.2676V29.9089H45.6106V39.1885H51.5386V39.1901Z" fill="white"/>
<path d="M52.5309 42.2833L57.1926 29.9089H61.1337L65.7953 42.2833H62.2497L61.431 39.924H56.8397L56.021 42.2833H52.5293H52.5309ZM60.4033 36.9277L59.137 33.2681L57.8707 36.9277H60.4033Z" fill="white"/>
<path d="M66.7529 42.2833V29.9089H72.2773C75.5844 29.9089 77.0533 31.27 77.0533 33.4618C77.0533 34.6636 76.3851 35.5831 75.4178 36.069C76.4913 36.4762 77.3001 37.5188 77.3001 38.7288C77.3001 40.9206 75.8491 42.2817 72.5943 42.2817H66.7529V42.2833ZM72.1972 34.7096C73.1204 34.7096 73.5877 34.3648 73.5877 33.6753C73.5877 32.9857 73.1221 32.6508 72.207 32.6508H70.096V34.7096H72.1989H72.1972ZM72.408 39.5448C73.3671 39.5448 73.859 39.1918 73.859 38.4924C73.859 37.793 73.3671 37.4318 72.408 37.4318H70.0944V39.5448H72.408Z" fill="white"/>
<path d="M77.9141 40.9765L79.5496 38.2363C80.5267 38.829 81.7048 39.5088 83.579 39.5088C84.476 39.5088 85.1361 39.2608 85.1361 38.6517C85.1361 38.0065 84.3714 37.8834 82.8404 37.6354L82.3747 37.5566C79.6134 37.0789 78.4255 35.8951 78.4255 33.8001C78.4255 31.3423 80.396 29.6907 83.4221 29.6907C85.0315 29.6907 86.4825 29.8581 88.6213 30.9894L87.1785 33.7378C86.3697 33.278 85.1459 32.7034 83.6247 32.7034C82.7277 32.7034 82.0414 32.9513 82.0414 33.5079C82.0414 34.2057 83.2996 34.2763 84.5577 34.5242L84.9531 34.603C87.4955 35.0972 88.788 36.3269 88.788 38.2265C88.788 41.3558 86.1573 42.5133 83.5365 42.5133C81.329 42.5133 79.3225 41.983 77.9157 40.9749L77.9141 40.9765Z" fill="white"/>
</svg>
