<?xml version="1.0" encoding="UTF-8"?>
<svg id="Capa_2" data-name="Capa 2" xmlns="http://www.w3.org/2000/svg" viewBox="0 0 927.04 982.22">
  <defs>
    <style>
      .cls-1 {
        fill: #fff;
      }
    </style>
  </defs>
  <g id="Capa_1-2" data-name="Capa 1">
    <g>
      <g>
        <path class="cls-1" d="M414.93,0h-128.84c-129.58,0-144.71,57.6-144.71,112.3,0,88.56,63.36,120.96,133.89,131.74h-133.89v253.4h128.84c129.58,0,144.71-57.6,144.71-112.3,0-66.97-46.08-113.75-117.36-131.74h117.36V0ZM455.96,0l2.16,311c0,52.98,10.38,109.95,50.12,146.43,6.54-24.65,19.51-47.18,38.01-65.67,27.59-27.62,64.3-42.91,103.37-43.02V0h-193.65ZM649.6,76.33v181.38h7.17c71.28,0,128.88-57.56,128.88-128.84v-52.55h-136.05Z"/>
        <path class="cls-1" d="M722.42,461.53c-.04.31-.12.63-.16.9-.04.04-.04.08-.04.16l-.04.12c-.04.27-.12.47-.16.67-2.39,8.7-11.36,13.87-20.1,11.52l-.12-.04c-2.55-.67-4.74-1.92-6.58-3.57-.04,0-.08-.04-.12-.04-.08-.04-.16,0-.24.08l-.04.04c-.94.9-16.34,15.83-36.87,64.5-7.05,16.81-13.52,27.51-18.46,34.29-4.78-5.13-12.11-14.3-17.2-26.72-.16-.51-.35-.98-.55-1.45-.94-2.39-1.76-4.86-2.47-7.45-.04-.16.04-.27.2-.31,1.41-.27,3.1-1.06,4.94-2.23l19.2-71.71c.74-.12,1.45-.24,2.15-.35l-18.85,70.34c1.96-1.45,4.08-3.25,6.31-5.29l17.71-66.1c.75-.16,1.45-.31,2.19-.51l-17.16,63.99c2.19-2.12,4.47-4.43,6.78-6.9l15.64-58.42c.74-.2,1.49-.39,2.19-.63l-14.97,55.92c2.31-2.55,4.7-5.21,7.05-7.95l13.2-49.41c.74-.2,1.49-.43,2.23-.59l-12.46,46.51c2.43-2.94,4.86-5.88,7.25-8.78l10.46-39.14c.74-.2,1.49-.35,2.19-.55l-9.6,35.89c2.94-3.64,5.72-7.21,8.27-10.5l7.13-26.61c.71-.12,1.45-.27,2.15-.35l-6.15,22.88c6.66-8.7,11.09-14.81,11.09-14.81.47-.71.94-1.37,1.41-2,4.9-6.23,10.27-6.54,14.19-5.49,1.41.39,2.63.94,3.56,1.45h.08c.24.08.43-.24.2-.43-2.47-2.12-5.29-3.49-8.35-4.31-1.57-.43-3.21-.71-4.9-.82-3.25-.31-6.7-.12-10.31.39-.7.08-1.41.2-2.12.31-1.92.31-3.84.71-5.8,1.14-.7.16-1.45.35-2.15.51-1.76.43-3.49.9-5.29,1.37-.71.2-1.45.39-2.19.59-1.76.51-3.53.98-5.29,1.49-.75.2-1.45.39-2.19.59-1.76.51-3.53.98-5.29,1.41-.71.2-1.45.35-2.19.51-1.72.43-3.49.82-5.17,1.14-.75.16-1.45.27-2.16.39-5.09.78-9.87,1.02-14.07.12-.98-.2-1.96-.39-2.86-.67-2.7-.71-5.21-1.61-7.48-2.63,0-.04-.04-.04-.04-.04-.12-.04-.24.04-.28.16-1.65,4.47-25.04,70.84,16.3,119.63,0,.04.16.2.35.39-2,2.39-3.6,4-4.78,5.05-50.59-52.55-32.48-115.2-26.8-130.87.04-.12.08-.24.12-.35.47-1.02.94-2.08,1.41-3.1.04-.12,0-.2-.08-.27-4.54-4.47-6.78-8.5-7.21-9.33-.04-.08-.04-.2.04-.27l15.6-17.2c.08-.08.16-.12.24-.08.04,0,.08.04.12.08,8.7,10.62,18.18,15.99,28.21,18.69,17.52,4.7,36.64,1.14,55.88,2.86,3.1.27,5.8.74,8.15,1.37,16.03,4.31,15.99,15.83,15.12,20.85Z"/>
      </g>
      <path class="cls-1" d="M44.75,799.96c-6.39,0-12.31-.62-17.75-1.85-5.44-1.23-10.18-3-14.22-5.3-4.04-2.3-7.18-5.16-9.42-8.58-2.24-3.42-3.37-7.37-3.37-11.86v-1.35c0-.45.06-.84.17-1.18h24.4v1.51c.11,2.69,1.12,4.88,3.03,6.56,1.91,1.68,4.43,2.89,7.57,3.62,3.14.73,6.45,1.09,9.93,1.09,3.25,0,6.42-.22,9.51-.67,3.08-.45,5.66-1.35,7.74-2.69,2.07-1.35,3.11-3.14,3.11-5.38,0-2.8-1.24-4.88-3.7-6.23-2.47-1.35-5.86-2.41-10.18-3.2-4.32-.78-9.17-1.68-14.55-2.69-4.49-.78-8.78-1.79-12.87-3.03-4.1-1.23-7.77-2.83-11.02-4.79-3.25-1.96-5.83-4.49-7.74-7.57-1.91-3.08-2.86-6.92-2.86-11.53s1.06-8.97,3.2-12.45c2.13-3.48,5.16-6.34,9.09-8.58,3.92-2.24,8.55-3.9,13.88-4.96,5.33-1.07,11.08-1.6,17.25-1.6,5.72,0,11.1.53,16.15,1.6,5.05,1.07,9.42,2.64,13.12,4.71,3.7,2.08,6.65,4.69,8.83,7.82,2.19,3.14,3.28,6.67,3.28,10.6v1.85c0,.56-.06,1.01-.17,1.35h-24.4v-1.18c0-2.13-.76-3.87-2.27-5.22s-3.59-2.38-6.23-3.11c-2.64-.73-5.64-1.09-9-1.09-1.68,0-3.59.11-5.72.34-2.13.23-4.18.62-6.14,1.18-1.96.56-3.53,1.35-4.71,2.35-1.18,1.01-1.77,2.3-1.77,3.87,0,2.02,1.06,3.62,3.2,4.79,2.13,1.18,4.96,2.1,8.5,2.78,3.53.67,7.37,1.4,11.53,2.19,4.71,1.01,9.42,2.05,14.13,3.11,4.71,1.07,9.03,2.5,12.96,4.29,3.92,1.8,7.01,4.37,9.25,7.74,2.24,3.36,3.37,7.85,3.37,13.46s-1.09,9.96-3.28,13.71c-2.19,3.76-5.3,6.79-9.34,9.09-4.04,2.3-8.81,3.95-14.3,4.96-5.5,1.01-11.56,1.51-18.17,1.51ZM136.35,799.96c-10.54,0-18.7-2.69-24.48-8.08-5.78-5.38-8.67-13.85-8.67-25.41v-57.04h24.57v53c0,3.25.39,5.97,1.18,8.16.78,2.19,1.96,3.95,3.53,5.3,1.57,1.35,3.45,2.33,5.64,2.94,2.19.62,4.68.93,7.49.93,4.04,0,7.71-.9,11.02-2.69,3.31-1.79,5.97-4.29,7.99-7.49,2.02-3.2,3.03-6.81,3.03-10.85v-49.3h24.73v88.5h-20.19l-1.85-13.46h-1.18c-2.69,3.48-5.72,6.37-9.09,8.67-3.36,2.3-7.1,4.01-11.19,5.13-4.1,1.12-8.27,1.68-12.54,1.68ZM210.5,828.73v-119.29h20.02l2.19,12.79h1.18c3.48-5.38,7.88-9.2,13.21-11.44,5.33-2.24,11.13-3.36,17.41-3.36,8.19,0,15.28,1.63,21.28,4.88,6,3.25,10.63,8.3,13.88,15.14,3.25,6.84,4.88,15.59,4.88,26.25s-1.66,19.07-4.96,25.91c-3.31,6.84-7.88,11.95-13.71,15.31-5.83,3.36-12.68,5.05-20.53,5.05-3.93,0-7.71-.45-11.36-1.35-3.65-.9-6.98-2.27-10.01-4.12-3.03-1.85-5.61-4.12-7.74-6.81h-1.01v41.05h-24.73ZM257.44,779.94c5.05,0,9.2-.93,12.45-2.78,3.25-1.85,5.66-4.65,7.24-8.41,1.57-3.76,2.36-8.22,2.36-13.38v-3.37c0-5.38-.79-9.93-2.36-13.63-1.57-3.7-3.98-6.48-7.24-8.33-3.25-1.85-7.46-2.78-12.62-2.78-4.82,0-8.89,1.01-12.2,3.03-3.31,2.02-5.83,4.91-7.57,8.67-1.74,3.76-2.61,8.22-2.61,13.38v2.35c0,3.82.5,7.32,1.51,10.52,1.01,3.2,2.44,5.89,4.29,8.08,1.85,2.19,4.15,3.84,6.9,4.96,2.75,1.12,6.03,1.68,9.84,1.68ZM366.12,799.96c-10.66,0-19.71-1.66-27.17-4.96-7.46-3.31-13.15-8.38-17.08-15.23-3.93-6.84-5.89-15.53-5.89-26.08s1.96-19.24,5.89-26.08c3.92-6.84,9.56-11.92,16.91-15.23,7.34-3.31,16.24-4.96,26.67-4.96s18.87,1.63,25.99,4.88c7.12,3.25,12.51,8.22,16.15,14.89,3.64,6.67,5.47,15.06,5.47,25.15v6.9h-71.67c.22,5.16,1.29,9.45,3.2,12.87,1.91,3.42,4.68,5.92,8.33,7.49,3.64,1.57,8.16,2.36,13.54,2.36,2.69,0,5.27-.31,7.74-.93,2.47-.61,4.71-1.57,6.73-2.86,2.02-1.29,3.7-2.89,5.05-4.8,1.35-1.91,2.08-4.09,2.19-6.56h24.73c0,5.16-1.15,9.82-3.45,13.97-2.3,4.15-5.47,7.63-9.51,10.43-4.04,2.81-8.92,4.96-14.64,6.48-5.72,1.51-12.11,2.27-19.18,2.27ZM341.72,743.93h45.43c0-3.14-.53-5.89-1.6-8.25-1.07-2.36-2.55-4.32-4.46-5.89-1.91-1.57-4.15-2.72-6.73-3.45-2.58-.73-5.44-1.09-8.58-1.09-4.82,0-8.95.7-12.37,2.1-3.42,1.4-6.09,3.51-7.99,6.31-1.91,2.81-3.14,6.23-3.7,10.26ZM428.22,797.94v-88.5h20.19l2.02,14.47h1.18c1.12-3.03,2.75-5.83,4.88-8.41,2.13-2.58,4.74-4.6,7.82-6.06,3.08-1.46,6.59-2.19,10.52-2.19,2.02,0,3.87.17,5.55.5,1.68.34,3.14.73,4.37,1.18v21.54h-9.76c-3.82,0-7.1.59-9.84,1.77-2.75,1.18-5.05,2.86-6.9,5.05-1.85,2.19-3.2,4.74-4.04,7.65-.84,2.92-1.26,6.23-1.26,9.93v43.07h-24.73ZM532.22,799.96c-6.17,0-11.22-.95-15.14-2.86-3.93-1.91-6.81-4.74-8.66-8.5-1.85-3.76-2.78-8.44-2.78-14.05v-46.61h-13.63v-18.51h14.64l4.71-25.74h19.01v25.74h19.85v18.51h-19.85v43.07c0,3.36.7,5.92,2.1,7.65,1.4,1.74,4.06,2.61,7.99,2.61h9.76v15.98c-1.46.45-3.25.87-5.38,1.26-2.13.39-4.32.73-6.56,1.01-2.25.28-4.26.42-6.06.42ZM609.07,799.96c-10.66,0-19.71-1.66-27.17-4.96-7.46-3.31-13.15-8.38-17.08-15.23-3.93-6.84-5.89-15.53-5.89-26.08s1.96-19.24,5.89-26.08c3.92-6.84,9.56-11.92,16.91-15.23,7.34-3.31,16.24-4.96,26.67-4.96s18.87,1.63,25.99,4.88c7.12,3.25,12.51,8.22,16.15,14.89,3.64,6.67,5.47,15.06,5.47,25.15v6.9h-71.67c.22,5.16,1.29,9.45,3.2,12.87,1.91,3.42,4.68,5.92,8.33,7.49,3.64,1.57,8.16,2.36,13.54,2.36,2.69,0,5.27-.31,7.74-.93,2.47-.61,4.71-1.57,6.73-2.86,2.02-1.29,3.7-2.89,5.05-4.8,1.35-1.91,2.08-4.09,2.19-6.56h24.73c0,5.16-1.15,9.82-3.45,13.97-2.3,4.15-5.47,7.63-9.51,10.43-4.04,2.81-8.92,4.96-14.64,6.48-5.72,1.51-12.11,2.27-19.18,2.27ZM584.68,743.93h45.43c0-3.14-.53-5.89-1.6-8.25-1.07-2.36-2.55-4.32-4.46-5.89-1.91-1.57-4.15-2.72-6.73-3.45-2.58-.73-5.44-1.09-8.58-1.09-4.82,0-8.95.7-12.37,2.1-3.42,1.4-6.09,3.51-7.99,6.31-1.91,2.81-3.14,6.23-3.7,10.26ZM699.61,799.96c-3.93,0-7.85-.39-11.78-1.18-3.93-.79-7.43-2.07-10.52-3.87-3.09-1.79-5.58-4.35-7.49-7.66-1.91-3.31-2.86-7.54-2.86-12.7,0-6.62,1.57-11.97,4.71-16.07,3.14-4.09,7.68-7.18,13.63-9.25,5.94-2.08,12.98-3.45,21.12-4.12,8.13-.67,17.08-1.01,26.84-1.01v-5.22c0-3.03-.65-5.52-1.93-7.49-1.29-1.96-3.31-3.5-6.06-4.63-2.75-1.12-6.42-1.68-11.02-1.68-4.04,0-7.49.42-10.35,1.26-2.86.84-5.05,1.94-6.56,3.28-1.51,1.35-2.27,2.92-2.27,4.71v2.02h-24.23c-.11-.67-.2-1.23-.25-1.68-.06-.45-.08-1.01-.08-1.68,0-5.16,1.74-9.67,5.22-13.54,3.48-3.87,8.55-6.84,15.23-8.92,6.67-2.07,14.66-3.11,23.98-3.11s17.13,1.01,23.47,3.03c6.34,2.02,11.19,5.16,14.55,9.42,3.36,4.26,5.05,9.7,5.05,16.32v38.87c0,2.02.53,3.56,1.6,4.63,1.07,1.07,2.38,1.6,3.95,1.6h7.07v15.82c-1.24.56-3.2,1.15-5.89,1.77-2.69.61-5.83.93-9.42.93-4.15,0-7.57-.53-10.26-1.6-2.69-1.06-4.79-2.52-6.31-4.37s-2.61-4.01-3.28-6.48h-1.35c-2.35,2.47-5.24,4.69-8.66,6.65-3.42,1.96-7.29,3.45-11.61,4.46-4.32,1.01-9.06,1.51-14.22,1.51ZM707.01,781.79c3.25,0,6.42-.42,9.51-1.26,3.08-.84,5.86-2.02,8.33-3.53,2.47-1.51,4.49-3.42,6.06-5.72,1.57-2.3,2.35-4.79,2.35-7.49v-4.88c-8.75,0-16.21.42-22.38,1.26-6.17.84-10.91,2.24-14.22,4.21-3.31,1.96-4.96,4.68-4.96,8.16,0,2.24.67,4.04,2.02,5.38s3.2,2.33,5.55,2.94c2.36.62,4.93.93,7.74.93ZM779.98,797.94v-88.5h20.19l2.02,13.29h1.18c2.36-3.48,5.19-6.36,8.5-8.66,3.31-2.3,6.87-3.98,10.68-5.05,3.81-1.06,7.74-1.6,11.78-1.6,6.84,0,12.62,1.21,17.33,3.62,4.71,2.41,8.3,6.31,10.77,11.69h1.18c2.47-3.48,5.36-6.36,8.66-8.66,3.31-2.3,6.95-3.98,10.94-5.05,3.98-1.06,8.05-1.6,12.2-1.6,6.62,0,12.25,1.12,16.91,3.36,4.65,2.24,8.27,5.83,10.85,10.77,2.58,4.94,3.87,11.22,3.87,18.84v57.54h-24.9v-53.34c0-3.14-.37-5.83-1.09-8.08-.73-2.24-1.77-4.04-3.11-5.38s-3.06-2.3-5.13-2.86c-2.08-.56-4.29-.84-6.65-.84-3.7,0-7.1.87-10.18,2.61-3.09,1.74-5.55,4.21-7.4,7.4-1.85,3.2-2.78,6.81-2.78,10.85v49.63h-24.57v-53.34c0-3.14-.39-5.83-1.18-8.08-.79-2.24-1.88-4.04-3.28-5.38-1.4-1.35-3.09-2.3-5.05-2.86-1.96-.56-4.23-.84-6.81-.84-3.7,0-7.1.87-10.18,2.61-3.09,1.74-5.53,4.21-7.32,7.4-1.8,3.2-2.69,6.81-2.69,10.85v49.63h-24.73ZM165.45,980.21v-115.56h27.08v115.56h-27.08ZM217.76,980.21v-88.65h20.35l1.85,14.63h1.34c1.23-3.14,2.92-5.97,5.05-8.49,2.13-2.52,4.76-4.51,7.91-5.97,3.14-1.46,6.67-2.19,10.6-2.19,2.02,0,3.9.17,5.63.5,1.74.34,3.22.73,4.46,1.18v21.7h-9.92c-3.93,0-7.29.59-10.09,1.77-2.8,1.18-5.1,2.86-6.9,5.05-1.79,2.19-3.14,4.77-4.04,7.74-.9,2.97-1.35,6.2-1.35,9.67v43.06h-24.89ZM332.82,982.22c-10.77,0-19.93-1.66-27.5-4.96s-13.35-8.38-17.33-15.22c-3.98-6.84-5.97-15.53-5.97-26.07s1.96-19.23,5.89-26.07c3.92-6.84,9.64-11.94,17.16-15.31,7.51-3.36,16.49-5.05,26.91-5.05s19.43,1.66,26.66,4.96c7.23,3.31,12.7,8.3,16.4,14.97,3.7,6.67,5.55,15.06,5.55,25.15v6.9h-73c.34,5.16,1.46,9.42,3.36,12.78,1.91,3.36,4.71,5.86,8.41,7.49,3.7,1.63,8.3,2.44,13.79,2.44,2.58,0,5.19-.31,7.82-.93,2.63-.61,4.99-1.54,7.06-2.78,2.07-1.23,3.78-2.8,5.13-4.71,1.35-1.91,2.07-4.15,2.19-6.73h24.89c0,5.16-1.12,9.79-3.36,13.88-2.24,4.09-5.44,7.57-9.59,10.43-4.15,2.86-9.14,5.05-14.97,6.56-5.83,1.51-12.34,2.27-19.51,2.27ZM307.76,926.21h46.76c0-3.25-.56-6.03-1.68-8.33-1.12-2.3-2.66-4.21-4.62-5.72-1.96-1.51-4.26-2.63-6.9-3.36-2.64-.73-5.58-1.09-8.83-1.09-4.82,0-9,.67-12.53,2.02-3.53,1.35-6.31,3.42-8.33,6.22-2.02,2.8-3.31,6.22-3.87,10.26ZM398.76,980.21v-121.79h24.89v121.79h-24.89ZM474.62,982.22c-4.15,0-8.22-.37-12.2-1.09-3.98-.73-7.57-2.02-10.77-3.87s-5.75-4.46-7.65-7.82c-1.91-3.36-2.86-7.62-2.86-12.78,0-6.62,1.65-11.94,4.96-15.98,3.31-4.04,7.99-7.09,14.05-9.17,6.05-2.07,13.2-3.45,21.45-4.12,8.24-.67,17.35-1.01,27.33-1.01v-5.05c0-3.03-.67-5.58-2.02-7.65-1.35-2.07-3.45-3.62-6.31-4.63-2.86-1.01-6.64-1.51-11.35-1.51-4.15,0-7.68.39-10.6,1.18-2.92.79-5.16,1.82-6.73,3.11-1.57,1.29-2.36,2.89-2.36,4.79v1.85h-24.56c-.11-.45-.2-.93-.25-1.43-.06-.5-.08-1.04-.08-1.6,0-5.27,1.77-9.84,5.3-13.71,3.53-3.87,8.69-6.87,15.48-9,6.78-2.13,15-3.2,24.64-3.2s17.35,1.01,23.8,3.03c6.45,2.02,11.35,5.16,14.72,9.42,3.36,4.26,5.05,9.81,5.05,16.65v38.69c0,2.02.5,3.56,1.51,4.63,1.01,1.07,2.41,1.6,4.2,1.6h7.23v15.81c-1.35.45-3.39,1.04-6.14,1.77-2.75.73-5.86,1.09-9.34,1.09-4.26,0-7.77-.53-10.51-1.6-2.75-1.06-4.88-2.58-6.39-4.54-1.51-1.96-2.61-4.12-3.28-6.48h-1.18c-2.58,2.47-5.61,4.68-9.08,6.64-3.48,1.96-7.4,3.45-11.78,4.46-4.37,1.01-9.14,1.51-14.3,1.51ZM482.02,964.06c3.14,0,6.28-.42,9.42-1.26,3.14-.84,6.03-2.02,8.66-3.53,2.63-1.51,4.77-3.39,6.39-5.64,1.62-2.24,2.44-4.77,2.44-7.57v-4.88c-9.2,0-16.96.42-23.3,1.26-6.34.84-11.16,2.27-14.47,4.29-3.31,2.02-4.96,4.77-4.96,8.24,0,2.24.7,4.01,2.1,5.3,1.4,1.29,3.31,2.24,5.72,2.86,2.41.62,5.07.93,7.99.93ZM558.05,980.21v-88.65h20.35l1.85,13.63h1.34c2.69-3.59,5.77-6.53,9.25-8.83,3.47-2.3,7.26-4.01,11.35-5.13,4.09-1.12,8.33-1.68,12.7-1.68,7.18,0,13.26,1.21,18.25,3.62,4.99,2.41,8.8,6.11,11.44,11.1,2.63,4.99,3.95,11.35,3.95,19.09v56.86h-24.89v-52.82c0-3.14-.42-5.83-1.26-8.07-.84-2.24-2.05-4.06-3.62-5.47-1.57-1.4-3.48-2.44-5.72-3.11-2.24-.67-4.77-1.01-7.57-1.01-4.15,0-7.91.93-11.27,2.78s-6.08,4.35-8.16,7.49c-2.08,3.14-3.11,6.84-3.11,11.1v49.12h-24.89ZM707.09,982.22c-8.19,0-15.34-1.66-21.45-4.96-6.11-3.31-10.85-8.41-14.21-15.31-3.36-6.9-5.05-15.61-5.05-26.16s1.68-19.23,5.05-26.07c3.36-6.84,8.02-11.91,13.96-15.22,5.94-3.31,12.84-4.96,20.69-4.96,4.15,0,8.07.45,11.77,1.35,3.7.9,7.06,2.27,10.09,4.12,3.03,1.85,5.61,4.18,7.74,6.98h1.18v-43.57h24.73v121.79h-20.19l-2.02-12.95h-1.18c-3.59,5.27-8.07,9.08-13.46,11.44-5.38,2.35-11.27,3.53-17.66,3.53ZM714.32,962.21c5.05,0,9.22-1.01,12.53-3.03,3.31-2.02,5.8-4.9,7.49-8.66,1.68-3.76,2.52-8.21,2.52-13.37v-2.19c0-3.92-.48-7.46-1.43-10.6-.95-3.14-2.38-5.8-4.29-7.99-1.91-2.19-4.26-3.84-7.06-4.96-2.8-1.12-6.11-1.68-9.92-1.68-5.05,0-9.25.95-12.62,2.86-3.36,1.91-5.86,4.68-7.49,8.33-1.63,3.65-2.44,8.1-2.44,13.37v3.36c0,5.27.84,9.73,2.52,13.37,1.68,3.65,4.18,6.42,7.49,8.33,3.31,1.91,7.54,2.86,12.7,2.86Z"/>
      <path class="cls-1" d="M650.03,387.36c59.65,0,108.18,48.53,108.18,108.19s-48.53,108.19-108.18,108.19-108.18-48.53-108.18-108.19,48.53-108.19,108.18-108.19M650.03,374.31c-66.96,0-121.23,54.28-121.23,121.23s54.28,121.23,121.23,121.23,121.23-54.28,121.23-121.23-54.28-121.23-121.23-121.23h0Z"/>
    </g>
  </g>
</svg>